HIERARCHY
ROOT Hips
{
	OFFSET 0.000000 0.000000 0.000000 
	CHANNELS 6 Xposition Yposition Zposition Zrotation Xrotation Yrotation
	JOINT Spine
	{
		OFFSET -0.000000 8.061080 0.000000 
		CHANNELS 3 Zrotation Xrotation Yrotation
		JOINT Spine1
		{
			OFFSET -0.000000 20.532677 0.000000 
			CHANNELS 3 Zrotation Xrotation Yrotation
			JOINT Neck
			{
				OFFSET -0.000000 22.498795 0.000000 
				CHANNELS 3 Zrotation Xrotation Yrotation
				JOINT Head
				{
					OFFSET -0.000000 15.237408 1.966117 
					CHANNELS 3 Zrotation Xrotation Yrotation
					End Site
					{
						OFFSET -0.000000 19.661171 0.000000 
					}
				}
			}
			JOINT LeftShoulder
			{
				OFFSET 3.894675 16.042269 -0.398189 
				CHANNELS 3 Zrotation Xrotation Yrotation
				JOINT LeftArm
				{
					OFFSET 19.709621 0.000000 0.000000 
					CHANNELS 3 Zrotation Xrotation Yrotation
					JOINT LeftForeArm
					{
						OFFSET 25.566900 0.000000 0.000000 
						CHANNELS 3 Zrotation Xrotation Yrotation
						JOINT LeftHand
						{
							OFFSET 25.401896 0.000000 0.000000 
							CHANNELS 3 Zrotation Xrotation Yrotation
							End Site
							{
								OFFSET 14.745877 0.000000 0.000000 
							}
						}
					}
				}
			}
			JOINT RightShoulder
			{
				OFFSET -3.930777 16.042269 -0.398189 
				CHANNELS 3 Zrotation Xrotation Yrotation
				JOINT RightArm
				{
					OFFSET -19.709621 0.000000 0.000000 
					CHANNELS 3 Zrotation Xrotation Yrotation
					JOINT RightForeArm
					{
						OFFSET -25.566900 0.000000 0.000000 
						CHANNELS 3 Zrotation Xrotation Yrotation
						JOINT RightHand
						{
							OFFSET -25.401896 0.000000 0.000000 
							CHANNELS 3 Zrotation Xrotation Yrotation
							End Site
							{
								OFFSET -14.745877 0.000000 0.000000 
							}
						}
					}
				}
			}
		}
	}
	JOINT LeftUpLeg
	{
		OFFSET 9.830585 0.000000 0.000000 
		CHANNELS 3 Zrotation Xrotation Yrotation
		JOINT LeftLeg
		{
			OFFSET -0.000000 -46.474842 0.000000 
			CHANNELS 3 Zrotation Xrotation Yrotation
			JOINT LeftFoot
			{
				OFFSET -0.000000 -30.290520 0.000000 
				CHANNELS 3 Zrotation Xrotation Yrotation
				JOINT LeftToeBase
				{
					OFFSET -0.000000 -6.389880 14.745877 
					CHANNELS 3 Zrotation Xrotation Yrotation
					End Site
					{
						OFFSET -0.000000 0.000000 3.932234 
					}
				}
			}
		}
	}
	JOINT RightUpLeg
	{
		OFFSET -9.830585 0.000000 0.000000 
		CHANNELS 3 Zrotation Xrotation Yrotation
		JOINT RightLeg
		{
			OFFSET -0.000000 -46.474842 0.000000 
			CHANNELS 3 Zrotation Xrotation Yrotation
			JOINT RightFoot
			{
				OFFSET -0.000000 -30.290520 0.000000 
				CHANNELS 3 Zrotation Xrotation Yrotation
				JOINT RightToeBase
				{
					OFFSET -0.000000 -6.389880 14.745877 
					CHANNELS 3 Zrotation Xrotation Yrotation
					End Site
					{
						OFFSET -0.000000 0.000000 3.932234 
					}
				}
			}
		}
	}
}
MOTION
Frames: 12
Frame Time: 0.010000
0.000000 87.245010 0.000000 -2.111094 6.818725 4.766029 1.550371 -8.837557 -0.685931 1.736939 0.004185 -0.271179 4.007191 11.205678 -0.284199 -0.486669 6.252732 0.724050 3.815215 10.356966 -0.242052 -69.165863 28.204916 -25.401520 -11.954023 -0.712045 -4.666245 4.380658 -0.957559 6.354508 -8.420602 8.048553 -8.476604 54.132412 53.271187 40.122391 5.287783 -10.255185 8.415865 -1.058396 -10.699636 6.776080 4.963827 -1.070673 2.622267 2.371099 -5.728867 0.952894 -0.281525 4.714086 -0.291288 0.000000 0.000000 0.000000 -4.927722 -8.106503 8.873135 5.429833 9.350405 0.563478 0.000000 0.000000 0.000000 0.000000 0.000000 0.000000 
-0.000069 87.245331 0.001583 -2.113866 6.821600 4.748414 1.543121 -8.841009 -0.682285 1.763480 -0.000437 -0.269803 3.986562 11.216365 -0.282956 -0.482686 6.260739 0.720303 3.794335 10.340512 -0.248038 -69.183327 28.207684 -25.365168 -11.946537 -0.714117 -4.671162 4.384601 -0.959778 6.349877 -8.430991 8.052881 -8.472891 54.131172 53.267605 40.120983 5.291592 -10.249564 8.421383 -1.100943 -10.696880 6.760740 4.985584 -1.069230 2.592950 2.330891 -5.725630 0.956833 -0.260761 4.710213 -0.254677 0.000000 0.000000 0.000000 -4.920053 -8.096536 8.998843 5.433669 9.335808 0.567037 0.000000 0.000000 0.000000 0.000000 0.000000 0.000000 
0.000076 87.245331 0.003713 -2.115357 6.822458 4.731315 1.539893 -8.844419 -0.678126 1.779181 -0.000964 -0.268211 3.973701 11.224358 -0.283063 -0.480890 6.268142 0.717117 3.780834 10.328631 -0.250984 -69.197487 28.207775 -25.338936 -11.941971 -0.714799 -4.674966 4.387945 -0.960658 6.347115 -8.436878 8.055430 -8.470070 54.125866 53.268291 40.123981 5.294448 -10.246604 8.426389 -1.141730 -10.696570 6.745729 5.005147 -1.065618 2.564248 2.291626 -5.721403 0.965237 -0.237166 4.704559 -0.223809 0.000000 0.000000 0.000000 -4.915123 -8.085833 9.113036 5.432654 9.317361 0.569750 0.000000 0.000000 0.000000 0.000000 0.000000 0.000000 
0.000238 87.244965 0.006706 -2.115522 6.821049 4.715431 1.539505 -8.846038 -0.673839 1.786047 -0.000269 -0.266816 3.967625 11.231068 -0.284659 -0.481698 6.274527 0.714472 3.773863 10.320538 -0.251060 -69.209076 28.207733 -25.320429 -11.939626 -0.714774 -4.677694 4.391502 -0.960608 6.346285 -8.439008 8.057399 -8.469743 54.115242 53.272385 40.132908 5.298123 -10.244933 8.430354 -1.180101 -10.697431 6.731111 5.019905 -1.061040 2.540918 2.260232 -5.713255 0.975976 -0.214637 4.695312 -0.203793 0.000000 0.000000 0.000000 -4.913357 -8.079075 9.173674 5.425858 9.301772 0.570235 0.000000 0.000000 0.000000 0.000000 0.000000 0.000000 
0.000508 87.244431 0.010199 -2.115017 6.818258 4.700056 1.542181 -8.848095 -0.669747 1.784825 0.004023 -0.265742 3.967778 11.235692 -0.286545 -0.484865 6.279830 0.713287 3.772825 10.314250 -0.248964 -69.219826 28.205814 -25.306847 -11.939206 -0.713249 -4.679626 4.396842 -0.958983 6.346963 -8.437380 8.057454 -8.469999 54.101887 53.279148 40.144501 5.301062 -10.244831 8.433962 -1.217868 -10.699734 6.716448 5.029556 -1.057009 2.525153 2.238280 -5.700034 0.988631 -0.195324 4.681882 -0.192814 0.000000 0.000000 0.000000 -4.912385 -8.076485 9.181558 5.424039 9.298868 0.570156 0.000000 0.000000 0.000000 0.000000 0.000000 0.000000 
0.000720 87.244049 0.013689 -2.114799 6.815777 4.684566 1.543768 -8.850267 -0.667382 1.785269 0.008125 -0.265054 3.967884 11.240323 -0.286641 -0.488762 6.284691 0.714078 3.771668 10.305826 -0.246714 -69.234329 28.203033 -25.288416 -11.937662 -0.710602 -4.681423 4.402532 -0.956100 6.348047 -8.435426 8.056786 -8.469075 54.087399 53.286667 40.155491 5.302919 -10.245746 8.438138 -1.255379 -10.702973 6.701359 5.035887 -1.054929 2.516973 2.223908 -5.683132 1.000997 -0.180887 4.666001 -0.185654 0.000000 0.000000 0.000000 -4.910162 -8.074211 9.185982 5.427471 9.301615 0.570752 0.000000 0.000000 0.000000 0.000000 0.000000 0.000000 
0.001025 87.243706 0.017306 -2.115217 6.814230 4.668562 1.543319 -8.853367 -0.666447 1.790558 0.011651 -0.264670 3.965139 11.245028 -0.284243 -0.491687 6.290455 0.716619 3.768130 10.297036 -0.243932 -69.250305 28.201693 -25.268080 -11.934628 -0.707906 -4.682269 4.406374 -0.953048 6.349200 -8.434643 8.056012 -8.467515 54.078289 53.288582 40.160038 5.305427 -10.243718 8.443152 -1.290579 -10.703215 6.685683 5.040158 -1.053917 2.516298 2.217534 -5.667169 1.003286 -0.176231 4.651984 -0.175422 0.000000 0.000000 0.000000 -4.906757 -8.070199 9.212326 5.431255 9.301565 0.571913 0.000000 0.000000 0.000000 0.000000 0.000000 0.000000 
0.002028 87.242966 0.021532 -2.115974 6.812088 4.651633 1.544557 -8.860820 -0.664112 1.794627 0.022540 -0.264077 3.962673 11.247211 -0.281108 -0.493869 6.296092 0.719855 3.765346 10.295421 -0.239370 -69.259071 28.200472 -25.263603 -11.932945 -0.705679 -4.678816 4.408317 -0.950239 6.349825 -8.434528 8.053198 -8.466672 54.080486 53.282383 40.154881 5.308208 -10.237811 8.448509 -1.322077 -10.699390 6.670138 5.042526 -1.050635 2.522039 2.219258 -5.655776 0.990319 -0.182862 4.641431 -0.158208 0.000000 0.000000 0.000000 -4.903009 -8.062148 9.262577 5.436666 9.297857 0.574167 0.000000 0.000000 0.000000 0.000000 0.000000 0.000000 
0.003438 87.241920 0.026405 -2.116401 6.809404 4.634963 1.545018 -8.868751 -0.661636 1.800973 0.033447 -0.263519 3.957307 11.251574 -0.277404 -0.494367 6.300537 0.722628 3.760021 10.301217 -0.233857 -69.260597 28.198603 -25.269600 -11.934153 -0.703562 -4.673111 4.410685 -0.947505 6.349350 -8.437736 8.051795 -8.466545 54.087173 53.273537 40.147514 5.310921 -10.231451 8.452266 -1.348013 -10.694724 6.656201 5.043329 -1.045761 2.531331 2.223927 -5.646311 0.972925 -0.191254 4.631654 -0.141740 0.000000 0.000000 0.000000 -4.900539 -8.052702 9.317961 5.437747 9.288752 0.575989 0.000000 0.000000 0.000000 0.000000 0.000000 0.000000 
0.004786 87.240753 0.031985 -2.116241 6.806408 4.619758 1.544676 -8.874689 -0.660451 1.807270 0.040694 -0.263195 3.951779 11.257635 -0.274209 -0.494388 6.305496 0.724871 3.754843 10.308077 -0.228239 -69.261269 28.197500 -25.274504 -11.937110 -0.701272 -4.667873 4.412857 -0.944718 6.348282 -8.441687 8.052241 -8.468454 54.091782 53.265545 40.143646 5.314837 -10.226481 8.453519 -1.366967 -10.691047 6.644692 5.043787 -1.040045 2.541161 2.226660 -5.636948 0.959301 -0.193916 4.621055 -0.132383 0.000000 0.000000 0.000000 -4.900230 -8.047458 9.334929 5.433683 9.280911 0.576035 0.000000 0.000000 0.000000 0.000000 0.000000 0.000000 
0.006229 87.239655 0.037976 -2.116004 6.803499 4.605359 1.546369 -8.881311 -0.659749 1.808131 0.049221 -0.263345 3.950490 11.261580 -0.271902 -0.494929 6.311981 0.727299 3.753847 10.313110 -0.222505 -69.264153 28.194986 -25.276524 -11.941080 -0.697531 -4.663871 4.413870 -0.940718 6.348152 -8.442616 8.051558 -8.471395 54.095337 53.258430 40.140739 5.318855 -10.223478 8.452973 -1.380185 -10.688977 6.635892 5.044316 -1.033975 2.551357 2.227578 -5.627654 0.948711 -0.191514 4.609661 -0.127528 0.000000 0.000000 0.000000 -4.899724 -8.046453 9.311255 5.434469 9.284451 0.575694 0.000000 0.000000 0.000000 0.000000 0.000000 0.000000 
0.007875 87.238739 0.044020 -2.115954 6.800999 4.591221 1.550999 -8.890111 -0.659631 1.802263 0.061585 -0.263540 3.954197 11.262650 -0.270240 -0.496033 6.318487 0.730055 3.757707 10.315537 -0.216704 -69.269508 28.191710 -25.276480 -11.944423 -0.692982 -4.660555 4.412786 -0.935948 6.349152 -8.439939 8.048318 -8.474206 54.099957 53.252064 40.136467 5.321896 -10.222492 8.450976 -1.388965 -10.688550 6.630403 5.045185 -1.027823 2.561400 2.226561 -5.618896 0.941054 -0.185310 4.598124 -0.124426 0.000000 0.000000 0.000000 -4.897905 -8.044669 9.292104 5.441009 9.292980 0.576289 0.000000 0.000000 0.000000 0.000000 0.000000 0.000000 
